<?xml version="1.0" encoding="UTF-8" standalone="no"?>
<!-- Created with Inkscape (http://www.inkscape.org/) -->

<svg
   xmlns:dc="http://purl.org/dc/elements/1.1/"
   xmlns:cc="http://creativecommons.org/ns#"
   xmlns:rdf="http://www.w3.org/1999/02/22-rdf-syntax-ns#"
   xmlns:svg="http://www.w3.org/2000/svg"
   xmlns="http://www.w3.org/2000/svg"
   xmlns:xlink="http://www.w3.org/1999/xlink"
   xmlns:sodipodi="http://sodipodi.sourceforge.net/DTD/sodipodi-0.dtd"
   xmlns:inkscape="http://www.inkscape.org/namespaces/inkscape"
   width="744.09448819"
   height="1052.3622047"
   id="svg4690"
   version="1.1"
   inkscape:version="0.48.0 r9654"
   sodipodi:docname="logo.svg">
  <defs
     id="defs4692">
    <linearGradient
       id="linearGradient5210">
      <stop
         style="stop-color:#232323;stop-opacity:1;"
         offset="0"
         id="stop5212" />
      <stop
         style="stop-color:#2e2e2e;stop-opacity:1;"
         offset="1"
         id="stop5214" />
    </linearGradient>
    <linearGradient
       inkscape:collect="always"
       xlink:href="#linearGradient5210"
       id="linearGradient5220"
       x1="229.80029"
       y1="552.94592"
       x2="344.82333"
       y2="683.94434"
       gradientUnits="userSpaceOnUse"
       gradientTransform="matrix(0.64104782,0,0,0.64104782,101.94542,221.52575)" />
  </defs>
  <sodipodi:namedview
     id="base"
     pagecolor="#ffffff"
     bordercolor="#666666"
     borderopacity="1.0"
     inkscape:pageopacity="0.0"
     inkscape:pageshadow="2"
     inkscape:zoom="3.3565475"
     inkscape:cx="327.49772"
     inkscape:cy="430.63391"
     inkscape:document-units="px"
     inkscape:current-layer="layer1"
     showgrid="false"
     inkscape:window-width="1278"
     inkscape:window-height="1007"
     inkscape:window-x="1440"
     inkscape:window-y="15"
     inkscape:window-maximized="0" />
  <metadata
     id="metadata4695">
    <rdf:RDF>
      <cc:Work
         rdf:about="">
        <dc:format>image/svg+xml</dc:format>
        <dc:type
           rdf:resource="http://purl.org/dc/dcmitype/StillImage" />
        <dc:title></dc:title>
      </cc:Work>
    </rdf:RDF>
  </metadata>
  <g
     inkscape:label="Layer 1"
     inkscape:groupmode="layer"
     id="layer1">
    <rect
       inkscape:export-ydpi="200"
       inkscape:export-xdpi="200"
       inkscape:export-filename="/home/j/docs/class/6.111/eq/presentation/logo.png"
       y="537.66919"
       x="204.53198"
       height="158.95277"
       width="158.95277"
       id="rect12002"
       style="fill:none;fill-opacity:1;stroke:none" />
    <rect
       style="fill:url(#linearGradient5220);fill-opacity:1;stroke:none"
       id="rect4698"
       width="100.55943"
       height="100.55943"
       x="233.72865"
       y="566.86584"
       inkscape:export-filename="/home/j/docs/class/6.111/eq/presentation/logo.png"
       inkscape:export-xdpi="200"
       inkscape:export-ydpi="200" />
    <g
       id="g5238"
       transform="matrix(1.0988008,0,0,1.0988008,-115.6013,-98.185491)"
       inkscape:export-filename="/home/j/docs/class/6.111/eq/presentation/logo.png"
       inkscape:export-xdpi="200"
       inkscape:export-ydpi="200">
      <path
         inkscape:connector-curvature="0"
         id="path5222"
         d="m 290.26114,654.94283 c 0,0 0.962,-79.63134 1.68351,-27.77266 0.7215,51.85868 1.12234,87.25038 1.68351,50.38402 0.56117,-36.86635 -0.88184,-87.0046 0.64133,-59.23195 1.52318,27.77266 1.36285,77.66513 2.32485,55.79109 0.96201,-21.87404 -1.12234,-72.50384 0.32067,-50.38402 1.44301,22.11982 1.04218,73.73272 1.52318,44.48541 0.481,-29.24732 0.88184,-52.59601 1.84384,-31.95085 0.96201,20.64516 0.64134,52.84178 1.12234,24.82335 0.48101,-28.01843 1.84385,-65.8679 1.84385,-29.73886 0,36.12903 -0.32067,87.98771 0.40083,45.22273 0.72151,-42.76498 1.52318,-96.58986 1.52318,-55.54531 0,41.04454 -1.04217,86.0215 0.2405,51.36712 1.28268,-34.65437 0.72151,-86.0215 1.60334,-52.84178 0.88185,33.17973 -1.28267,111.33641 0.32068,62.91859 1.60334,-48.41782 1.60334,-41.78187 1.60334,-41.78187"
         style="fill:none;stroke:#eb7700;stroke-width:0.91008306px;stroke-linecap:butt;stroke-linejoin:miter;stroke-opacity:1" />
      <path
         style="fill:none;stroke:#eb7700;stroke-width:0.91008306px;stroke-linecap:butt;stroke-linejoin:miter;stroke-opacity:1"
         d="m 308.26114,653.89974 c 0,0 0.962,-50.11627 1.68351,-17.47882 0.7215,32.63744 1.12234,54.91134 1.68351,31.70936 0.56117,-23.20197 -0.88184,-54.75666 0.64133,-37.27784 1.52318,17.47882 1.36285,48.87883 2.32485,35.11232 0.96201,-13.7665 -1.12234,-45.63055 0.32067,-31.70936 1.44301,13.92119 1.04218,46.40395 1.52318,27.99705 0.481,-18.4069 0.88184,-33.10148 1.84384,-20.10838 0.96201,12.99311 0.64134,33.25616 1.12234,15.62267 0.48101,-17.6335 1.84385,-41.4542 1.84385,-18.71626 0,22.73793 -0.32067,55.37538 0.40083,28.46108 0.72151,-26.91429 1.52318,-60.78917 1.52318,-34.95764 0,25.83153 -1.04217,54.13794 0.2405,32.32809 1.28268,-21.80986 0.72151,-54.13794 1.60334,-33.25617 0.88185,20.88178 -1.28267,70.06997 0.32068,39.59804 1.60334,-30.47193 1.60334,-26.29557 1.60334,-26.29557"
         id="path5224"
         inkscape:connector-curvature="0" />
      <path
         inkscape:connector-curvature="0"
         id="path5226"
         d="m 326.78646,654.48931 c 0,0 0.962,-66.7987 1.68351,-23.29708 0.7215,43.50163 1.12234,73.18993 1.68351,42.26461 0.56117,-30.92532 -0.88184,-72.98376 0.64133,-49.68669 1.52318,23.29708 1.36285,65.14935 2.32485,46.80033 0.96201,-18.34903 -1.12234,-60.81981 0.32067,-42.26461 1.44301,18.5552 1.04218,61.85065 1.52318,37.31656 0.481,-24.5341 0.88184,-44.12013 1.84384,-26.80195 0.96201,17.31818 0.64134,44.32629 1.12234,20.82305 0.48101,-23.50324 1.84385,-55.25325 1.84385,-24.94642 0,30.30681 -0.32067,73.80843 0.40083,37.93506 0.72151,-35.87338 1.52318,-81.02435 1.52318,-46.59415 0,34.43018 -1.04217,72.15908 0.2405,43.08927 1.28268,-29.06979 0.72151,-72.15908 1.60334,-44.32629 0.88185,27.8328 -1.28267,93.39448 0.32068,52.77922 1.60334,-40.61526 1.60334,-35.0487 1.60334,-35.0487"
         style="fill:none;stroke:#eb7700;stroke-width:0.91008306px;stroke-linecap:butt;stroke-linejoin:miter;stroke-opacity:1" />
      <path
         style="fill:none;stroke:#eb7700;stroke-width:0.91008306px;stroke-linecap:butt;stroke-linejoin:miter;stroke-opacity:1"
         d="m 345.31178,653.53691 c 0,0 0.962,-39.85015 1.68351,-13.89835 0.7215,25.9518 1.12234,43.66297 1.68351,25.21383 0.56117,-18.44914 -0.88184,-43.53998 0.64133,-29.64163 1.52318,13.89836 1.36285,38.8662 2.32485,27.91971 0.96201,-10.9465 -1.12234,-36.28332 0.32067,-25.21383 1.44301,11.06949 1.04218,36.89829 1.52318,22.26197 0.481,-14.63633 0.88184,-26.32079 1.84384,-15.98927 0.96201,10.33153 0.64134,26.44378 1.12234,12.42243 0.48101,-14.02135 1.84385,-32.96248 1.84385,-14.88231 0,18.08016 -0.32067,44.03196 0.40083,22.63095 0.72151,-21.40101 1.52318,-48.33676 1.52318,-27.79671 0,20.54005 -1.04217,43.04801 0.2405,25.70581 1.28268,-17.3422 0.72151,-43.04801 1.60334,-26.44378 0.88185,16.60424 -1.28267,55.71643 0.32068,31.48655 1.60334,-24.22988 1.60334,-20.90903 1.60334,-20.90903"
         id="path5228"
         inkscape:connector-curvature="0" />
      <path
         style="fill:none;stroke:#eb7700;stroke-width:0.91008306px;stroke-linecap:butt;stroke-linejoin:miter;stroke-opacity:1"
         d="m 361.76958,649.31432 c 0,0 0.962,79.63134 1.68351,27.77266 0.7215,-51.85868 1.12234,-87.25038 1.68351,-50.38402 0.56117,36.86635 -0.88184,87.0046 0.64133,59.23195 1.52318,-27.77266 1.36285,-77.66513 2.32485,-55.79109 0.96201,21.87404 -1.12234,72.50384 0.32067,50.38402 1.44301,-22.11982 1.04218,-73.73272 1.52318,-44.48541 0.481,29.24732 0.88184,52.59601 1.84384,31.95085 0.96201,-20.64516 0.64134,-52.84178 1.12234,-24.82335 0.48101,28.01843 1.84385,65.8679 1.84385,29.73886 0,-36.12903 -0.32067,-87.98771 0.40083,-45.22273 0.72151,42.76498 1.52318,96.58986 1.52318,55.54531 0,-41.04454 -1.04217,-86.0215 0.2405,-51.36712 1.28268,34.65437 0.72151,86.0215 1.60334,52.84178 0.88185,-33.17973 -1.28267,-111.33641 0.32068,-62.91859 1.60334,48.41782 1.60334,41.78187 1.60334,41.78187"
         id="path5230"
         inkscape:connector-curvature="0" />
      <path
         inkscape:connector-curvature="0"
         id="path5232"
         d="m 379.76958,650.35741 c 0,0 0.962,50.11627 1.68351,17.47882 0.7215,-32.63744 1.12234,-54.91134 1.68351,-31.70936 0.56117,23.20197 -0.88184,54.75666 0.64133,37.27784 1.52318,-17.47882 1.36285,-48.87883 2.32485,-35.11232 0.96201,13.7665 -1.12234,45.63055 0.32067,31.70936 1.44301,-13.92119 1.04218,-46.40395 1.52318,-27.99705 0.481,18.4069 0.88184,33.10148 1.84384,20.10838 0.96201,-12.99311 0.64134,-33.25616 1.12234,-15.62267 0.48101,17.6335 1.84385,41.4542 1.84385,18.71626 0,-22.73793 -0.32067,-55.37538 0.40083,-28.46108 0.72151,26.91429 1.52318,60.78917 1.52318,34.95764 0,-25.83153 -1.04217,-54.13794 0.2405,-32.32809 1.28268,21.80986 0.72151,54.13794 1.60334,33.25617 0.88185,-20.88178 -1.28267,-70.06997 0.32068,-39.59804 1.60334,30.47193 1.60334,26.29557 1.60334,26.29557"
         style="fill:none;stroke:#eb7700;stroke-width:0.91008306px;stroke-linecap:butt;stroke-linejoin:miter;stroke-opacity:1" />
      <path
         style="fill:none;stroke:#eb7700;stroke-width:0.91008306px;stroke-linecap:butt;stroke-linejoin:miter;stroke-opacity:1"
         d="m 398.2949,649.76784 c 0,0 0.962,66.7987 1.68351,23.29708 0.7215,-43.50163 1.12234,-73.18993 1.68351,-42.26461 0.56117,30.92532 -0.88184,72.98376 0.64133,49.68669 1.52318,-23.29708 1.36285,-65.14935 2.32485,-46.80033 0.96201,18.34903 -1.12234,60.81981 0.32067,42.26461 1.44301,-18.5552 1.04218,-61.85065 1.52318,-37.31656 0.481,24.5341 0.88184,44.12013 1.84384,26.80195 0.96201,-17.31818 0.64134,-44.32629 1.12234,-20.82305 0.48101,23.50324 1.84385,55.25325 1.84385,24.94642 0,-30.30681 -0.32067,-73.80843 0.40083,-37.93506 0.72151,35.87338 1.52318,81.02435 1.52318,46.59415 0,-34.43018 -1.04217,-72.15908 0.2405,-43.08927 1.28268,29.06979 0.72151,72.15908 1.60334,44.32629 0.88185,-27.8328 -1.28267,-93.39448 0.32068,-52.77922 1.60334,40.61526 1.60334,35.0487 1.60334,35.0487"
         id="path5234"
         inkscape:connector-curvature="0" />
      <path
         inkscape:connector-curvature="0"
         id="path5236"
         d="m 416.82022,650.72024 c 0,0 0.962,39.85015 1.68351,13.89835 0.7215,-25.9518 1.12234,-43.66297 1.68351,-25.21383 0.56117,18.44914 -0.88184,43.53998 0.64133,29.64163 1.52318,-13.89836 1.36285,-38.8662 2.32485,-27.91971 0.96201,10.9465 -1.12234,36.28332 0.32067,25.21383 1.44301,-11.06949 1.04218,-36.89829 1.52318,-22.26197 0.481,14.63633 0.88184,26.32079 1.84384,15.98927 0.96201,-10.33153 0.64134,-26.44378 1.12234,-12.42243 0.48101,14.02135 1.84385,32.96248 1.84385,14.88231 0,-18.08016 -0.32067,-44.03196 0.40083,-22.63095 0.72151,21.40101 1.52318,48.33676 1.52318,27.79671 0,-20.54005 -1.04217,-43.04801 0.2405,-25.70581 1.28268,17.3422 0.72151,43.04801 1.60334,26.44378 0.88185,-16.60424 -1.28267,-55.71643 0.32068,-31.48655 1.60334,24.22988 1.60334,20.90903 1.60334,20.90903"
         style="fill:none;stroke:#eb7700;stroke-width:0.91008306px;stroke-linecap:butt;stroke-linejoin:miter;stroke-opacity:1" />
    </g>
    <path
       style="fill:none;stroke:#b7fd00;stroke-width:4;stroke-linecap:butt;stroke-linejoin:miter;stroke-miterlimit:4;stroke-opacity:1;stroke-dasharray:none"
       d="m 184.3318,561.79382 c 0,0 16.06379,-2.18883 22.33732,2.79917 21.48754,17.08447 17.15265,96.88081 39.84394,99.93509 18.34177,2.46883 35.40423,-87.80686 61.91034,-66.64463 37.61255,30.02951 43.0741,-11.49903 50.97475,-31.93859 2.82089,-7.29784 18.60492,-6.11724 18.60492,-6.11724"
       id="path5208"
       inkscape:connector-curvature="0"
       sodipodi:nodetypes="cssssc"
       inkscape:export-filename="/home/j/docs/class/6.111/eq/presentation/logo.png"
       inkscape:export-xdpi="200"
       inkscape:export-ydpi="200" />
  </g>
</svg>
